<svg xmlns="http://www.w3.org/2000/svg" viewBox="0 0 240 135" width="480" height="270">
<defs><style>.bg{fill:#000}.line{fill:#333}.txt{fill:#EEE;font-family:monospace;font-size:8px}.big{fill:#EEE;font-family:monospace;font-size:15px;font-weight:700}.val{fill:#EEE;font-family:monospace;font-size:11px}.small{fill:#EEE;font-family:monospace;font-size:7px}.edit{fill:#F00}.track{fill:none;stroke:#333;stroke-width:8;stroke-linecap:round}.fillR{fill:none;stroke:#F00;stroke-width:8;stroke-linecap:round}.fillSel{fill:none;stroke:#FFF;stroke-width:8;stroke-linecap:round}.blk{fill:#000;font-family:monospace;font-weight:700}</style></defs>
<rect class="bg" width="240" height="135"/><circle cx="8" cy="8" r="5" fill="#F00"/><text x="16" y="11" class="txt">ACTIVE</text><text x="174" y="11" class="txt">ORBIT ECHO</text><rect x="0" y="18" width="240" height="1" class="line"/>
<rect x="80" y="20" width="80" height="102" class="edit"/><rect x="80" y="20" width="1" height="102" class="line"/><rect x="160" y="20" width="1" height="102" class="line"/>
<text x="29" y="38" class="big">DIF</text><path d="M 24 78 A 16 16 0 1 1 56 78" class="track"/><path d="M 24 78 A 16 16 0 1 1 56 62" class="fillR"/><text x="34" y="96" class="val">2</text><text x="10" y="113" class="small">DIFF STAGES</text>
<text x="108" y="38" class="blk" font-size="15">DFM</text><path d="M 104 78 A 16 16 0 1 1 136 78" class="track"/><path d="M 104 78 A 16 16 0 1 1 116 64" class="fillSel"/><text x="112" y="96" class="blk" font-size="11">20%</text><text x="91" y="113" class="blk" font-size="7">DIFF AMOUNT</text>
<text x="189" y="38" class="big">SPR</text><path d="M 184 78 A 16 16 0 1 1 216 78" class="track"/><path d="M 184 78 A 16 16 0 1 1 190 67" class="fillR"/><text x="192" y="96" class="val">0%</text><text x="179" y="113" class="small">STEREO SPREAD</text>
<rect x="0" y="122" width="240" height="1" class="line"/><text x="4" y="131" class="txt">ENC NAV / PUSH EDIT</text>
</svg>
