<svg xmlns="http://www.w3.org/2000/svg" viewBox="0 0 240 135" width="480" height="270">
<defs><style>.bg{fill:#000}.line{fill:#333}.txt{fill:#EEE;font-family:monospace;font-size:8px}.big{fill:#EEE;font-family:monospace;font-size:15px;font-weight:700}.val{fill:#EEE;font-family:monospace;font-size:11px}.small{fill:#EEE;font-family:monospace;font-size:7px}.sel{fill:#0841}.track{fill:none;stroke:#333;stroke-width:8;stroke-linecap:round}.fill{fill:none;stroke:#F00;stroke-width:8;stroke-linecap:round}.fillSel{fill:none;stroke:#FFF;stroke-width:8;stroke-linecap:round}</style></defs>
<rect class="bg" width="240" height="135"/><circle cx="8" cy="8" r="5" fill="#F00"/><text x="16" y="11" class="txt">ACTIVE</text><text x="174" y="11" class="txt">ORBIT ECHO</text><rect x="0" y="18" width="240" height="1" class="line"/>
<rect x="80" y="20" width="80" height="102" class="sel"/><rect x="80" y="20" width="1" height="102" class="line"/><rect x="160" y="20" width="1" height="102" class="line"/>
<text x="29" y="38" class="big">FBK</text><path d="M 24 78 A 16 16 0 1 1 56 78" class="track"/><path d="M 24 78 A 16 16 0 1 1 44 63" class="fill"/><text x="30" y="96" class="val">35%</text><text x="16" y="113" class="small">FEEDBACK</text>
<text x="109" y="38" class="big">BPM</text><path d="M 104 78 A 16 16 0 1 1 136 78" class="track"/><path d="M 104 78 A 16 16 0 1 1 122 64" class="fillSel"/><text x="114" y="96" class="val">120</text><text x="111" y="113" class="small">BPM</text>
<text x="189" y="38" class="big">DIV</text><path d="M 184 78 A 16 16 0 1 1 216 78" class="track"/><path d="M 184 78 A 16 16 0 1 1 206 66" class="fill"/><text x="192" y="96" class="val">1/8</text><text x="188" y="113" class="small">DIVISION</text>
<rect x="0" y="122" width="240" height="1" class="line"/><text x="4" y="131" class="txt">ENC NAV / PUSH EDIT</text>
</svg>
